HIERARCHY
ROOT hips
{
  OFFSET 0 10.680822821525009 1.3929502295107734
  CHANNELS 6 Xposition Yposition Zposition Yrotation Xrotation Zrotation
  JOINT spine
  {
    OFFSET -7.042017322922631e-31 0.6058489940359625 0
    CHANNELS 3 Yrotation Xrotation Zrotation
    JOINT chest
    {
      OFFSET 0 1.2699794144455032 0
      CHANNELS 3 Yrotation Xrotation Zrotation
      JOINT upperChest
      {
        OFFSET 0 1.217799211677689 0
        CHANNELS 3 Yrotation Xrotation Zrotation
        JOINT neck
        {
          OFFSET 0 1.5248826104153006 0
          CHANNELS 3 Yrotation Xrotation Zrotation
          JOINT head
          {
            OFFSET 0 0.8197772727844447 0
            CHANNELS 3 Yrotation Xrotation Zrotation
            JOINT leftEye
            {
              OFFSET 0.2793952361220866 0.6769952096623495 0.1830357412467788
              CHANNELS 3 Yrotation Xrotation Zrotation
              End Site
              {
                OFFSET 0.2793952361220866 0.6769952096623495 0.1830357412467788
              }
            }
            JOINT rightEye
            {
              OFFSET -0.27939522230689573 0.676995205357064 0.18303631459760622
              CHANNELS 3 Yrotation Xrotation Zrotation
              End Site
              {
                OFFSET -0.27939522230689573 0.676995205357064 0.18303631459760622
              }
            }
          }
        }
        JOINT leftShoulder
        {
          OFFSET 0.41486978509200423 1.1670505408695453 0
          CHANNELS 3 Yrotation Xrotation Zrotation
          JOINT leftUpperArm
          {
            OFFSET 0.9737926108153417 0 0
            CHANNELS 3 Yrotation Xrotation Zrotation
            JOINT leftLowerArm
            {
              OFFSET 2.5269332222665284 0 0
              CHANNELS 3 Yrotation Xrotation Zrotation
              JOINT leftHand
              {
                OFFSET 2.4263782738425914 0 0
                CHANNELS 3 Yrotation Xrotation Zrotation
                JOINT leftIndexProximal
                {
                  OFFSET 0.724320348022514 0.08170607082582437 0.20360061616140124
                  CHANNELS 3 Yrotation Xrotation Zrotation
                  JOINT leftIndexIntermediate
                  {
                    OFFSET 0.36548960630744587 -0.010566596513783999 -0.01414783573280308
                    CHANNELS 3 Yrotation Xrotation Zrotation
                    JOINT leftIndexDistal
                    {
                      OFFSET 0.22502819650693362 -0.007863819831430696 -0.007567681939621526
                      CHANNELS 3 Yrotation Xrotation Zrotation
                      End Site
                      {
                        OFFSET 0.22502819650693362 -0.007863819831430696 -0.007567681939621526
                      }
                    }
                  }
                }
                JOINT leftLittleProximal
                {
                  OFFSET 0.6720322998298205 0.08170601055037707 -0.3230036039466837
                  CHANNELS 3 Yrotation Xrotation Zrotation
                  JOINT leftLittleIntermediate
                  {
                    OFFSET 0.34583592281688713 5.476543019078406e-8 1.3869203337180114e-7
                    CHANNELS 3 Yrotation Xrotation Zrotation
                    JOINT leftLittleDistal
                    {
                      OFFSET 0.19925728062053938 0.003098047439490381 0.0038303983709246925
                      CHANNELS 3 Yrotation Xrotation Zrotation
                      End Site
                      {
                        OFFSET 0.19925728062053938 0.003098047439490381 0.0038303983709246925
                      }
                    }
                  }
                }
                JOINT leftMiddleProximal
                {
                  OFFSET 0.7300436596551069 0.0817073395107144 0.022661722987926763
                  CHANNELS 3 Yrotation Xrotation Zrotation
                  JOINT leftMiddleIntermediate
                  {
                    OFFSET 0.40758254347686607 -0.0000012383587111308714 2.408460318820138e-7
                    CHANNELS 3 Yrotation Xrotation Zrotation
                    JOINT leftMiddleDistal
                    {
                      OFFSET 0.2514490105498507 0.0000013869132886590307 9.738618134136345e-8
                      CHANNELS 3 Yrotation Xrotation Zrotation
                      End Site
                      {
                        OFFSET 0.2514490105498507 0.0000013869132886590307 9.738618134136345e-8
                      }
                    }
                  }
                }
                JOINT leftRingProximal
                {
                  OFFSET 0.7217261161191838 0.08170601902187746 -0.15043395722184966
                  CHANNELS 3 Yrotation Xrotation Zrotation
                  JOINT leftRingIntermediate
                  {
                    OFFSET 0.37808807487521556 0.0000013754022405443322 2.2046919317952884e-7
                    CHANNELS 3 Yrotation Xrotation Zrotation
                    JOINT leftRingDistal
                    {
                      OFFSET 0.21812105442344254 -0.002713483731960231 -0.004991354517454624
                      CHANNELS 3 Yrotation Xrotation Zrotation
                      End Site
                      {
                        OFFSET 0.21812105442344254 -0.002713483731960231 -0.004991354517454624
                      }
                    }
                  }
                }
                JOINT leftThumbProximal
                {
                  OFFSET 0.10793587079521427 -0.1652791240518252 -0.07775251827190094
                  CHANNELS 3 Yrotation Xrotation Zrotation
                  JOINT leftThumbIntermediate
                  {
                    OFFSET 0.40355819082296684 -0.017484006740276614 0.3177776014416309
                    CHANNELS 3 Yrotation Xrotation Zrotation
                    JOINT leftThumbDistal
                    {
                      OFFSET 0.2318764658022603 -0.018510186824293617 0.21396001800186287
                      CHANNELS 3 Yrotation Xrotation Zrotation
                      End Site
                      {
                        OFFSET 0.2318764658022603 -0.018510186824293617 0.21396001800186287
                      }
                    }
                  }
                }
              }
            }
          }
        }
        JOINT rightShoulder
        {
          OFFSET -0.4148697850920044 1.1670505408695453 0
          CHANNELS 3 Yrotation Xrotation Zrotation
          JOINT rightUpperArm
          {
            OFFSET -0.9737926108153414 0 0
            CHANNELS 3 Yrotation Xrotation Zrotation
            JOINT rightLowerArm
            {
              OFFSET -2.5269332222665293 0 0
              CHANNELS 3 Yrotation Xrotation Zrotation
              JOINT rightHand
              {
                OFFSET -2.42637827384259 0 0
                CHANNELS 3 Yrotation Xrotation Zrotation
                JOINT rightIndexProximal
                {
                  OFFSET -0.724320348022514 0.08170607082582437 0.20360061616140124
                  CHANNELS 3 Yrotation Xrotation Zrotation
                  JOINT rightIndexIntermediate
                  {
                    OFFSET -0.36548960630744587 -0.010566596513783999 -0.01414783573280308
                    CHANNELS 3 Yrotation Xrotation Zrotation
                    JOINT rightIndexDistal
                    {
                      OFFSET -0.22502819650693362 -0.007863819831430696 -0.007567681939621526
                      CHANNELS 3 Yrotation Xrotation Zrotation
                      End Site
                      {
                        OFFSET -0.22502819650693362 -0.007863819831430696 -0.007567681939621526
                      }
                    }
                  }
                }
                JOINT rightLittleProximal
                {
                  OFFSET -0.6720322998298205 0.08170601055037707 -0.3230036039466837
                  CHANNELS 3 Yrotation Xrotation Zrotation
                  JOINT rightLittleIntermediate
                  {
                    OFFSET -0.34583592281688713 5.476543019078406e-8 1.3869203337180114e-7
                    CHANNELS 3 Yrotation Xrotation Zrotation
                    JOINT rightLittleDistal
                    {
                      OFFSET -0.19925728062053938 0.003098047439490381 0.0038303983709246925
                      CHANNELS 3 Yrotation Xrotation Zrotation
                      End Site
                      {
                        OFFSET -0.19925728062053938 0.003098047439490381 0.0038303983709246925
                      }
                    }
                  }
                }
                JOINT rightMiddleProximal
                {
                  OFFSET -0.7300436596551069 0.0817073395107144 0.022661722987926763
                  CHANNELS 3 Yrotation Xrotation Zrotation
                  JOINT rightMiddleIntermediate
                  {
                    OFFSET -0.40758254347686607 -0.0000012383587111308714 2.408460318820138e-7
                    CHANNELS 3 Yrotation Xrotation Zrotation
                    JOINT rightMiddleDistal
                    {
                      OFFSET -0.2514490105498507 0.0000013869132886590307 9.738618134136345e-8
                      CHANNELS 3 Yrotation Xrotation Zrotation
                      End Site
                      {
                        OFFSET -0.2514490105498507 0.0000013869132886590307 9.738618134136345e-8
                      }
                    }
                  }
                }
                JOINT rightRingProximal
                {
                  OFFSET -0.7217261161191838 0.08170601902187746 -0.15043395722184966
                  CHANNELS 3 Yrotation Xrotation Zrotation
                  JOINT rightRingIntermediate
                  {
                    OFFSET -0.37808807487521556 0.0000013754022405443322 2.2046919317952884e-7
                    CHANNELS 3 Yrotation Xrotation Zrotation
                    JOINT rightRingDistal
                    {
                      OFFSET -0.21812105442344254 -0.002713483731960231 -0.004991354517454624
                      CHANNELS 3 Yrotation Xrotation Zrotation
                      End Site
                      {
                        OFFSET -0.21812105442344254 -0.002713483731960231 -0.004991354517454624
                      }
                    }
                  }
                }
                JOINT rightThumbProximal
                {
                  OFFSET -0.10793587079521427 -0.1652791240518252 -0.07775251827190094
                  CHANNELS 3 Yrotation Xrotation Zrotation
                  JOINT rightThumbIntermediate
                  {
                    OFFSET -0.40355819082296684 -0.017484006740276614 0.3177776014416309
                    CHANNELS 3 Yrotation Xrotation Zrotation
                    JOINT rightThumbDistal
                    {
                      OFFSET -0.2318764658022603 -0.018510186824293617 0.21396001800186287
                      CHANNELS 3 Yrotation Xrotation Zrotation
                      End Site
                      {
                        OFFSET -0.2318764658022603 -0.018510186824293617 0.21396001800186287
                      }
                    }
                  }
                }
              }
            }
          }
        }
      }
    }
  }
  JOINT leftUpperLeg
  {
    OFFSET 0.8486251390888677 -0.4421577294694363 0
    CHANNELS 3 Yrotation Xrotation Zrotation
    JOINT leftLowerLeg
    {
      OFFSET 0 -4.10147812638609 0
      CHANNELS 3 Yrotation Xrotation Zrotation
      JOINT leftFoot
      {
        OFFSET -0.0002543926476658853 -4.77292286812444 0.007402811231737388
        CHANNELS 3 Yrotation Xrotation Zrotation
        JOINT leftToes
        {
          OFFSET 0 -0.7027875951174846 1.2062924140498823
          CHANNELS 3 Yrotation Xrotation Zrotation
          End Site
          {
            OFFSET 0 -0.7027875951174846 1.2062924140498823
          }
        }
      }
    }
  }
  JOINT rightUpperLeg
  {
    OFFSET -0.8486251390888677 -0.4421577294694363 0
    CHANNELS 3 Yrotation Xrotation Zrotation
    JOINT rightLowerLeg
    {
      OFFSET 0 -4.10147812638609 0
      CHANNELS 3 Yrotation Xrotation Zrotation
      JOINT rightFoot
      {
        OFFSET 0.0002543926476658853 -4.77292286812444 0.007402811231737388
        CHANNELS 3 Yrotation Xrotation Zrotation
        JOINT rightToes
        {
          OFFSET 0 -0.7027875951174846 1.2062924140498823
          CHANNELS 3 Yrotation Xrotation Zrotation
          End Site
          {
            OFFSET 0 -0.7027875951174846 1.2062924140498823
          }
        }
      }
    }
  }
}
MOTION
Frames: 4
Frame Time: 0.03333333333333333
0.4828023910522461 -0.5440926274332121 -0.13157224655151367 -12.52440536368599 17.95453909630551 -1.4817038643490372 -0.9563151080613653 4.305300068185181 -0.6309916313377861 -4.544475802524641 17.105952618015113 -3.74895050456334 0 0 0 -1.021482835384163 -25.399401227974973 8.253414353214016 7.361968911563274 -19.191900655329476 -0.5207065358850299 0 0 0 0 0 0 -1.122429715486747 -1.8151179423380364 -2.066356524651612 -35.88238605018526 -5.737512335934157 -44.08896477982315 -51.40175734086429 -4.913846296540991 3.180537894339336 -17.37284547942819 40.243554459227646 21.73608355138055 13.720472110145456 1.8116513793667133 -36.76802016195202 1.2608884347220555 0.9477928039864586 -22.167317194607403 -0.007597754978832316 0.0000013112285005321248 0.00009816642772010254 1.77064288701852 2.820803047493812 -46.92853980547778 -4.776065983012621 -1.6629000975882973 -26.423168357280783 -0.007699357375978955 5.9141714579784175e-8 0.00009945665692640193 4.6409995187998305 0.9418575231172824 -33.38567527586963 -2.081485824968207 -0.4672402237930763 -34.16470767134259 0.0023997999285003796 3.7800435184458435e-9 -0.00003099949309126598 3.8035656636414465 1.007303194526262 -43.760028724990995 -2.5883677309177524 -1.5070849066962688 -36.87621160776576 0.0000020567467520904296 -0.000005989903925387567 0.0000013276993973388638 12.300390143584943 11.965485993265423 8.877309109993757 14.363781831754363 8.675895608066163 5.870375220005701 -0.6435905739343801 -0.28038190527214557 -0.1479170475144582 3.243501530755565 -5.432372352922999 -0.7645173235388482 19.470517534330945 9.0666143840219 67.68701226301627 62.20346517447538 -6.870899893807683 -4.3519916430147125 29.337312385224784 55.539584408692676 17.223182942129537 -7.209334606987915 -2.430462554202427 26.557342185891613 -0.5376455080708776 0.1683209293986706 9.383106575473391 -0.010099156622314856 -6.596802379750212e-9 0.00013045612070555345 -4.343825542989582 1.721922673166181 24.142147361648366 3.548694815495045 -1.3171252461077685 11.68028711973169 -0.05689525076138824 8.63450980036477e-7 0.000734946061701708 -2.198042373291013 0.6762476507770097 19.688916175336093 1.0018754952203146 -0.16775180677458248 13.427331872900028 -0.03689691684742937 5.988661320840165e-8 0.0004766170014904347 -1.4088773169662832 -2.4342620685712717 24.18783927959408 0.5345978840941353 -0.46236869787241847 13.618409184823635 -0.012897359614015318 -7.037060690492873e-7 0.00016668128732577167 -16.15015452790531 1.7928838345050209 6.390162158162833 -10.464864775222537 6.612950569888231 -4.826999719428299 0.7310900658758795 -0.32303548152300166 0.1601220093623415 17.89573622787894 -43.47290939444084 -8.963703502389334 -0.39536311885119646 30.317595606129053 -1.2758610579849736 16.098228196595567 -4.587059446095899 7.5690598310670945 3.753626678054163 -0.41171907551500747 -6.106433281913978 12.651497118408834 -39.10466373603387 -11.350950712676685 11.913083130108546 55.392443032973226 8.676835306089943 -11.820898207615285 -0.6367466066826192 19.69146162804994 0.6996056134250821 -9.549640290444252 -0.7606633199538044
0.4731864035129547 -0.45310351457920817 -0.07948160916566849 -14.87999715044935 16.843568109893127 -2.0526052982127045 -1.0175638777749048 4.050698600375566 -0.5652361314564206 -4.817158599646832 16.082097338202377 -3.6000821964903325 0 0 0 -0.4090453451617561 -24.65897653001822 7.886585146848243 9.242107992558076 -17.82248287924133 -0.49527902074929114 0 0 0 0 0 0 -0.8171163376499515 -1.8493647318975712 -2.359978809640461 -31.58440701632869 -2.6572482604761487 -45.05855514235197 -54.107093640121214 -5.115570390683785 3.488459102367515 -13.574409485636624 44.50121559137596 21.363087515696915 13.883187267750289 1.6786516609300417 -36.141827424052636 1.2296386377797792 0.9259592130839659 -21.578297862170384 -0.007597754978832316 0.0000013112285005321248 0.00009816642772010254 1.8620640628461549 2.9961667996886265 -46.21090951689444 -4.557260207500455 -1.5221834060207604 -25.118344547201055 -0.007699357375978955 5.9141714579784175e-8 0.00009945665692640193 4.865652575731635 1.005011205945056 -32.974227359776314 -1.9577121388281375 -0.4052361541029036 -32.1845008939539 0.0023997999285003796 3.7800435184458435e-9 -0.00003099949309126598 3.7068182456048215 0.8539312977130705 -42.75666888576731 -2.347707214530201 -1.3034262810700294 -34.0189337136383 0.0000020567467520904296 -0.000005989903925387567 0.0000013276993973388638 11.66283317136204 11.793501506947107 9.458924525584267 13.200024015708655 8.0102911759857 5.881086546237047 -0.6435905739343801 -0.28038190527214557 -0.1479170475144582 3.2642073600462607 -5.2330520045385045 -0.07696719974869218 17.04244935511567 11.584062075192685 66.51429154684932 60.267113579380656 -6.9682024449249695 -4.0833357599968325 31.961154857809515 60.46487445118127 19.908596701168747 -7.014945278431972 -2.933404491833104 24.294357605996186 -0.5370987837781878 0.1623493048265453 9.32458307124532 -0.010099156622314856 -6.596802379750212e-9 0.00013045612070555345 -4.878337330347884 2.122981975378129 22.664000142846692 3.5238352931141637 -1.3101259845146613 11.165076142551548 -0.05689525076138824 8.63450980036477e-7 0.000734946061701708 -2.464932214714121 0.7021887186485755 18.629017418932424 0.985384569480292 -0.1640027509197134 13.15698721633889 -0.03689691684742937 5.988661320840165e-8 0.0004766170014904347 -1.8160433025808909 -2.026318809710141 22.695370276466715 0.5128518922718406 -0.457565372638699 13.114343545891687 -0.012897359614015318 -7.037060690492873e-7 0.00016668128732577167 -15.112773590140069 0.4136069780953935 6.166362543147282 -9.354684043742864 5.859109517734304 -4.630216917735236 0.7310900658758795 -0.32303548152300166 0.1601220093623415 17.17797988387613 -40.76403321338122 -7.229158866930186 -0.3045917439819076 27.81556393239115 -1.1327218945258009 17.656928170035233 -3.8759075019822786 7.130973794498825 3.727657109106361 -0.4611677195135537 -5.920564471881816 15.044490273359921 -37.52273628261527 -11.154785688482063 5.750784758113569 48.92580628775493 4.901955751717926 -11.915763704240408 -3.929220368339433 20.9535684750784 0.702857972625781 -8.626953673954414 -0.7516325293279752
0.4247138798236847 -0.3428301533731535 0.02722848951816559 -16.785749339294142 14.696563465103988 -2.471243987466829 -1.1311370692157945 3.6399197705194966 -0.384859362498801 -5.216841685175358 14.444800793485669 -2.9909475597616813 0 0 0 0.28098183145370437 -23.262372629921664 7.2148670291211845 10.73151015609485 -15.777722897801503 -0.46078591618187825 0 0 0 0 0 0 -0.7420938814621431 -1.9298388856952013 -3.2981762227700533 -26.654502063392748 1.1032137274312797 -46.47226569423734 -54.827270714422006 -5.122313066522823 3.572155977914168 -5.571441631203071 48.18042685203256 23.18480060745828 14.1544201916406 1.2471593303485042 -33.95274207509693 1.1476960244340078 0.8549637315751768 -19.79595977603153 -0.007597754978832316 0.0000013112285005321248 0.00009816642772010254 2.2665997277612027 3.4986404884501576 -44.511448364029555 -4.185262898055964 -1.2977623816342325 -22.939400724359558 -0.007699357375978955 5.9141714579784175e-8 0.00009945665692640193 5.261570861199373 1.1266481677622808 -31.81789325811242 -1.5992540957638388 -0.25549095615452166 -26.6285391874936 0.0023997999285003796 3.7800435184458435e-9 -0.00003099949309126598 3.5241955324413103 0.5762015358898146 -40.533132599496305 -1.8687741902026498 -0.9530112528171389 -28.633768321184363 0.0000020567467520904296 -0.000005989903925387567 0.0000013276993973388638 10.588559641422352 11.427496931199284 10.267667936567095 10.950659572713104 6.688374196103301 5.999015722102383 -0.6435905739343801 -0.28038190527214557 -0.1479170475144582 3.024705094797763 -4.942018670501093 1.0873709600224342 12.751378516651075 15.062659337022913 64.97003698078183 56.745848418367736 -7.096083872088033 -3.61000311190083 43.777068690682604 65.49976288300195 33.29694307675635 -6.303533432565608 -3.7943824999762414 21.543941224614088 -0.5343402140229179 0.15067830891930087 9.154295905119172 -0.010099156622314856 -6.596802379750212e-9 0.00013045612070555345 -6.577058546224548 3.113473818670379 19.280841204777836 3.4159783247801223 -1.2609490499564806 9.767289820420121 -0.05689525076138824 8.63450980036477e-7 0.000734946061701708 -2.245649305464865 0.4543360850143392 16.802356151676804 0.9214766904030753 -0.14907551683751505 12.260531325615117 -0.03689691684742937 5.988661320840165e-8 0.0004766170014904347 -2.2227029073681113 -1.5809052909989996 20.157891031668992 0.46310049705213685 -0.44418472444868967 12.128328901042337 -0.012897359614015318 -7.037060690492873e-7 0.00016668128732577167 -13.734670014732338 -1.574206391800217 5.557128954489559 -7.917037298473094 4.890522541000054 -4.404898118991829 0.7310900658758795 -0.32303548152300166 0.1601220093623415 13.905254210011233 -36.52277310744478 -4.176609245748299 -0.1829535351004393 24.87352759608554 -0.9635243745500198 20.691197966494617 -3.145968031184966 6.123072680940947 3.69378487811033 -0.7449954347146921 -5.643645004826329 15.220500650531202 -32.80086273829051 -9.140228078899773 -1.7120370167096632 36.220837752256855 0.8978280498678823 -10.873508162817517 -7.194202511996756 20.951859774743237 0.7023503981936631 -6.905112931860365 -0.7362622121699287
0.39955464005470276 -0.3085016926797941 0.06739655882120132 -16.954972278913598 13.862343343746742 -2.4877537051153853 -1.152422157244359 3.506435274183259 -0.3126761642523234 -5.255121695372498 13.919079509617168 -2.695871247343608 0 0 0 0.4285724498935692 -22.715615176848416 7.0150768277234565 10.89163030428916 -15.112959338524977 -0.570975736838873 0 0 0 0 0 0 -0.781013294422319 -1.9582605072601804 -3.646620275065783 -25.749730943574086 2.0695962785938864 -46.93232464276956 -54.003954878334405 -5.036015411176766 3.4765236532056667 -2.4970283399291486 48.25356594331301 24.184383413995484 14.202007905383251 1.161735976618563 -33.77974006862466 1.1296434448066657 0.8426054427322293 -19.461959417734782 -0.007597754978832316 0.0000013112285005321248 0.00009816642772010254 2.3119810154115297 3.581628130673751 -43.9731698896209 -4.060531536429571 -1.2266978255275884 -22.218685517826135 -0.007699357375978955 5.9141714579784175e-8 0.00009945665692640193 5.270602292137061 1.0687277772143693 -31.68532427843041 -1.5285625023069167 -0.23055739290821675 -25.561137118883096 0.0023997999285003796 3.7800435184458435e-9 -0.00003099949309126598 3.402735210596128 0.43173988959094683 -40.057216244532675 -1.764582287952099 -0.8860742453011705 -27.51013313011168 0.0000020567467520904296 -0.000005989903925387567 0.0000013276993973388638 10.238428352639549 11.307723527205049 10.417908272912454 10.398384162307611 6.384876643368775 6.018309840442636 -0.6435905739343801 -0.28038190527214557 -0.1479170475144582 2.877828370977798 -4.845532868054358 1.633096449073745 11.13510648744667 16.268723135001668 64.42131582524564 55.558883805059445 -7.142075626083318 -3.452908878690518 47.907555323275865 66.14912268399746 38.411521306973626 -6.252856065966015 -3.9551600499037245 20.95472198313847 -0.5344156529016133 0.14768367436383537 9.140150258259917 -0.010099156622314856 -6.596802379750212e-9 0.00013045612070555345 -6.623240438871714 3.171322860187522 19.103481881906422 3.421742186856529 -1.2673647994728745 9.6792270395413 -0.05689525076138824 8.63450980036477e-7 0.000734946061701708 -2.23129153609535 0.38661103745720005 16.567832209370522 0.9132989336163165 -0.147301556030199 12.119562104089713 -0.03689691684742937 5.988661320840165e-8 0.0004766170014904347 -2.23281283468712 -1.5623307545224423 20.057519819401357 0.46601013638296046 -0.4468518338668495 12.069369487816255 -0.012897359614015318 -7.037060690492873e-7 0.00016668128732577167 -13.579739121126597 -1.95599476441121 5.446535261590874 -7.645920641810586 4.7198517614879325 -4.360209917280561 0.7310900658758795 -0.32303548152300166 0.1601220093623415 12.602873285304645 -34.909753023026724 -3.259362300518323 -0.1448949955375138 23.872919722411478 -0.9082731153950437 21.57743961436198 -2.8838689741615817 5.795223370734061 3.682969913789834 -0.8633636208364003 -5.551233392694787 13.833227606486403 -30.620888640625463 -7.995502716024278 -2.6293270732747223 31.411431153789668 0.63279200405135 -10.427901923121977 -7.35614293941242 20.10892499427818 0.7079414814407327 -6.65664091607963 -0.7331642731450396
